<svg width="116" height="43" viewBox="0 0 116 43" fill="none" xmlns="http://www.w3.org/2000/svg">
<g clip-path="url(#clip0_10_483)">
<path fill-rule="evenodd" clip-rule="evenodd" d="M19.2742 17.8627C23.6053 19.1548 25.7488 23.184 24.8829 27.5356C23.9162 32.3992 19.5612 34.9441 14.8096 33.7886C10.807 32.8164 8.22927 28.2435 8.98825 24.2169C9.86429 19.572 14.422 16.606 18.9998 17.7919L19.2729 17.8627H19.2742ZM25.2227 40.8255V42.9456H29.8874C32.5646 42.9456 33.9982 41.1832 34.0008 38.5991L33.9957 25.7656C34.1971 22.3205 35.0694 21.323 37.5313 19.1004C38.1808 18.5138 38.2778 18.2913 38.6591 17.5163C38.6679 20.9955 38.6226 24.471 38.6642 27.9515C38.7007 30.8504 39.3124 33.0895 40.8782 35.5535C42.7096 38.4335 45.3843 40.5676 48.4743 41.9519C50.6858 42.9279 52.3221 43.0215 54.6947 42.9987C55.8452 42.9873 57.2561 42.8951 58.2278 42.225L58.3587 42.134C58.5526 41.9911 58.6822 41.8647 58.8496 41.694C59.7257 40.7445 59.7634 39.9165 59.7634 38.149C59.7634 35.2109 59.7634 32.274 59.7634 29.3359C59.7634 25.916 59.5948 23.921 60.9617 21.7263C61.8717 20.3141 62.3425 20.0701 63.5005 19.0334C64.4117 18.2167 64.7428 17.2192 64.6383 15.9916C64.4734 14.0497 61.6124 11.8575 59.9686 11.0787C59.9333 11.0623 59.9107 11.0509 59.8742 11.0408C58.9075 11.0408 56.0075 13.8714 55.4034 14.4707C52.5109 17.4683 51.261 21.2952 51.0307 25.3838C50.8797 28.0602 50.9778 30.7784 50.9892 33.4599C50.9917 33.9213 51.0936 33.9289 50.4907 33.5787C48.5738 32.3928 47.4938 29.7645 47.3881 27.5785C47.154 22.744 47.8198 17.9019 47.456 13.0535L47.4221 12.616C47.2874 11.3164 46.8619 10.5452 46.0123 9.90419C44.4667 8.73602 40.7787 9.03185 38.6629 9.03185L38.5811 14.9157C37.6333 13.2899 34.9309 11.1722 33.8875 10.9282C32.2814 11.9826 31.4079 12.8019 29.9881 14.0333C29.8471 14.1559 29.7036 14.2709 29.5564 14.386C28.0472 12.2734 24.898 10.3631 22.4486 9.5856C19.7336 8.72337 16.8424 8.60959 14.028 8.97623C7.88565 9.8473 2.27696 14.9676 0.652008 20.9538C-1.63753 29.3915 2.21906 38.1237 10.3237 41.5828C14.4912 43.3616 19.7512 43.3085 23.8923 41.4803C24.3454 41.2755 24.7809 41.0543 25.2227 40.8255Z" fill="white"/>
<path fill-rule="evenodd" clip-rule="evenodd" d="M65.2046 42.9455H70.0908C70.8637 42.9455 71.7145 42.6193 72.2394 42.3159C74.432 40.8506 73.9235 38.02 73.8706 35.7279C73.7825 31.9793 73.1066 24.9842 75.0588 21.8058L75.2074 21.5732C76.3125 19.9499 77.9689 19.2128 78.6876 17.3341C79.2276 14.8233 78.0809 14.0723 76.3591 12.5957C75.59 11.9358 74.8625 11.4225 73.9776 10.9307C71.5836 12.2038 69.3998 14.31 67.912 16.5516C64.5942 21.6756 65.2034 26.0613 65.2034 31.839V42.9468L65.2046 42.9455Z" fill="white"/>
<path fill-rule="evenodd" clip-rule="evenodd" d="M115.961 42.9457C115.961 40.7003 116.268 37.5093 115.165 35.8241C112.978 33.1047 110.833 35.0112 107.308 32.8885C103.153 30.3865 103.294 25.8124 103.299 21.5278C102.142 21.7984 100.172 23.83 99.4546 24.9173C97.8309 27.4686 97.3375 30.0742 97.7114 33.0705C98.6315 39.2072 104.598 42.5272 110.328 42.9103C112.176 43.0342 114.103 42.9507 115.96 42.9457H115.961Z" fill="#00FF38"/>
<path fill-rule="evenodd" clip-rule="evenodd" d="M97.1915 42.9455C97.2141 39.8253 97.9328 35.2448 94.1316 34.3055C91.608 33.8731 90.5016 34.3245 88.09 32.6101C85.6532 30.8781 84.8212 28.2548 84.5959 25.3887C84.5141 24.1118 84.5304 22.8071 84.5304 21.5264C83.3737 21.7969 81.4039 23.8286 80.6864 24.9158C75.6479 33.1626 81.1609 41.6294 90.2901 42.7862C92.5054 43.0668 94.951 42.9492 97.1915 42.9442V42.9455Z" fill="#00FF38"/>
<path fill-rule="evenodd" clip-rule="evenodd" d="M78.8664 12.8259C78.8664 14.0118 79.239 14.8981 79.7299 15.6402C81.4543 18.242 83.6343 15.9019 87.8181 18.6706C91.598 21.1713 91.5262 25.6101 91.5262 29.7822C92.6024 29.4939 94.7774 27.2309 95.4495 26.1373C98.0777 21.8667 97.7101 16.1876 94.3859 12.7412L93.554 11.903C92.2512 10.6603 89.7527 9.48957 87.9251 8.96616C85.0843 8.15451 81.9401 8.25059 78.8639 8.25059V12.8247L78.8664 12.8259Z" fill="white"/>
<path fill-rule="evenodd" clip-rule="evenodd" d="M97.6359 12.8259C97.6359 14.812 98.7787 16.7666 100.771 17.0384C101.98 17.204 102.971 17.1218 104.058 17.4189C106.583 18.1079 108.838 20.2281 109.703 22.9045C110.006 23.8426 110.089 24.9855 110.196 26.0905C110.306 27.2296 110.297 28.4825 110.297 29.7821C110.846 29.6355 112.084 28.6051 112.491 28.1929C114.67 25.9855 115.961 23.6821 115.961 20.0777C115.961 17.0232 114.725 14.2861 112.785 12.3353C111.24 10.7803 108.832 9.57924 106.697 8.9686C103.856 8.15695 100.712 8.25303 97.6359 8.25303V12.8271V12.8259Z" fill="white"/>
<path fill-rule="evenodd" clip-rule="evenodd" d="M69.6957 9.01273C76.0822 8.1189 74.4359 -0.838376 68.6271 0.0643051C63.0876 0.925266 63.5747 9.24409 69.6957 9.01273Z" fill="#00FF38"/>
</g>
<defs>
<clipPath id="clip0_10_483">
<rect width="116" height="43" fill="white"/>
</clipPath>
</defs>
</svg>
